<svg xmlns="http://www.w3.org/2000/svg" witdh="640" height="640" viewBox="0 0 16 16">
<!--BG-->
<rect x="0" y="0" width="16" height="16" fill="hsl(0,100%,90%)"/>

<!--SHIRT-->
<rect x="5" y="13" width="6" height="3" fill="hsl(0,90%,50%)"/><rect x="5" y="13" width="1" height="3" fill="hsl(0,90%,40%)"/>
<polygon points="6,13 7,13 7,14 8,14 9,14 9,13 10,13 10,16 6,16" fill="hsl(0,100%,30%)"/>

<!--SKIN-->
<polygon points="5,13 5,12 4,12 4,11 3,11 3,7 13,7 13,11 12,11 12,12 13,12 12,12 11,12 11,13 " fill="hsl(100,50%,80%)"/><polygon points="5,13 5,12 4,12 4,11 3,11 3,7 4,7 4,11 5,11 5,12 6,12 6,13" fill="hsl(100,50%,70%)"/><polygon points="7,15 12,15 12,16 11,16 11,15 7,15 7,16 6,16 6,15" fill="hsl(100,50%,80%)"/>
<polygon points="4,7 13,7 13,8 11,8 11,7 9,7 9,8 8,8 8,7 7,7 7,8 6,8 6,7 4,7 4,8 3,8 3,7" fill="hsl(200,80%,60%)"/> <!--change hair color-->

<!--eyes-->
<polygon transform="translate(0 2)" points="5,8 6,8 6,9 10,9 10,7 11,7 11,9 10,9 5,9" fill="hsl(180,0%,0%)"/>










<rect x="8" y="11" width="1" height="1" fill="hsl(0,0%,0%)"/>
<!--HAIR-->
<!--HELMET-->
<polygon points="3,7 3,3 4,3 4,2 6,2 6,3 7,3 7,4 9,4 9,3 10,3 10,2 12,2 12,3 13,3 13,7" fill="hsl(210,100%,60%)"/><rect x="6" y="6" width="1" height="1" fill="hsl(0,0%,0%)"/><rect x="9" y="6" width="1" height="1" fill="hsl(0,0%,0%)"/><rect x="4" y="4" width="2" height="1" fill="hsl(0,0%,0%)"/><rect x="10" y="4" width="2" height="1" fill="hsl(0,0%,0%)"/>
<!--BACKPACK-->
<polygon points="3,16 3,16 4,16 4,14 5,14 5,16" fill="hsl(10,70%,30%)"/>
<!--DIRT-->
<polygon points="12,16 12,14 15,14 15,15 13,15 13,16" fill="hsl(0,0%,0%)"/>
<!--WEAPON
    1
    
    2
    <polygon points="12,16 12,14 15,14 15,15 13,15 13,16" fill="hsl(0,0%,0%)"/><polygon points="7,16 7,14 10,14 10,15 8,15 8,16" fill="hsl(0,0%,0%)"/>
    3
    <rect x="5" y="14" width="3" height="1" fill="hsl(0,0%,0%)"/><rect x="6" y="12" width="1" height="2" fill="hsl(0,0%,75%)"/>
    4
    <polygon points="5,13 6,13 11,13 11,12 12,12 12,13 14,13 14,14 12,14 12,15 11,15 8,15 8,16 7,16 7,15 6,15 6,14 5,14" fill="hsl(0,0%,0%)"/><rect x="9" y="14" width="2" height="1" fill="hsl(5,80%,30%)"/>
    5


-->
</svg>